<svg xmlns="http://www.w3.org/2000/svg" viewBox="0 0 800 800" role="img" aria-label="Night City">
  <defs>
    <linearGradient id="sky" x1="0" y1="0" x2="0" y2="1">
      <stop offset="0" stop-color="#0b0413"/>
      <stop offset="1" stop-color="#1c0b16"/>
    </linearGradient>
  </defs>
  <rect width="800" height="800" fill="url(#sky)"/>
  <rect x="80" y="280" width="90" height="420" fill="#1f2937"/>
  <rect x="190" y="180" width="120" height="520" fill="#111827"/>
  <rect x="330" y="120" width="80" height="580" fill="#1f2937"/>
  <rect x="430" y="220" width="150" height="480" fill="#111827"/>
  <rect x="600" y="160" width="110" height="540" fill="#1f2937"/>
  <g fill="#facc15">
    <rect x="205" y="210" width="12" height="12"/>
    <rect x="230" y="250" width="12" height="12"/>
    <rect x="255" y="210" width="12" height="12"/>
    <rect x="205" y="320" width="12" height="12"/>
    <rect x="255" y="360" width="12" height="12"/>
    <rect x="345" y="160" width="10" height="10"/>
    <rect x="365" y="200" width="10" height="10"/>
    <rect x="450" y="260" width="12" height="12"/>
    <rect x="490" y="300" width="12" height="12"/>
    <rect x="530" y="260" width="12" height="12"/>
    <rect x="620" y="200" width="12" height="12"/>
    <rect x="655" y="250" width="12" height="12"/>
  </g>
  <g fill="#dc2626">
    <rect x="100" y="320" width="10" height="10"/>
    <rect x="130" y="380" width="10" height="10"/>
    <rect x="345" y="300" width="10" height="10"/>
    <rect x="620" y="340" width="10" height="10"/>
  </g>
  <path d="M0 640h800" stroke="#dc2626" stroke-width="8"/>
  <text x="400" y="730" text-anchor="middle" font-family="Arial Black, Impact, sans-serif" font-size="48" fill="#dc2626">NIGHT CITY</text>
</svg>
